<svg xmlns="http://www.w3.org/2000/svg" xmlns:xlink="http://www.w3.org/1999/xlink" contentStyleType="text/css" height="556px" preserveAspectRatio="none" style="width:895px;height:556px;background:#FFFFFF;" version="1.1" viewBox="0 0 895 556" width="895px" zoomAndPan="magnify"><defs/><g><!--class customers--><g id="elem_customers"><rect codeLine="1" fill="#F1F1F1" height="145.7813" id="customers" rx="2.5" ry="2.5" style="stroke:#181818;stroke-width:0.5;" width="193.2549" x="7" y="7"/><ellipse cx="62.7676" cy="23" fill="#ADD1B2" rx="11" ry="11" style="stroke:#181818;stroke-width:1.0;"/><path d="M66.877,29 L59.1582,29 L59.1582,16.6094 L66.877,16.6094 L66.877,18.7656 L61.6113,18.7656 L61.6113,21.4375 L66.377,21.4375 L66.377,23.5938 L61.6113,23.5938 L61.6113,26.8438 L66.877,26.8438 L66.877,29 Z " fill="#000000"/><text fill="#000000" font-family="sans-serif" font-size="14" lengthAdjust="spacing" textLength="73.2197" x="83.2676" y="27.8467">customers</text><line style="stroke:#181818;stroke-width:0.5;" x1="8" x2="199.2549" y1="39" y2="39"/><ellipse cx="18" cy="52.6484" fill="#000000" rx="3" ry="3" style="stroke:#000000;stroke-width:1.0;"/><text fill="#000000" font-family="sans-serif" font-size="14" lengthAdjust="spacing" textLength="56.916" x="27" y="55.9951">id : uuid</text><line style="stroke:#181818;stroke-width:1.0;" x1="8" x2="199.2549" y1="63.2969" y2="63.2969"/><text fill="#000000" font-family="sans-serif" font-size="14" lengthAdjust="spacing" textLength="144.4912" x="13" y="80.292">name : varchar(255)</text><text fill="#000000" font-family="sans-serif" font-size="14" lengthAdjust="spacing" textLength="117.3936" x="13" y="96.5889">cpf : varchar(11)</text><text fill="#000000" font-family="sans-serif" font-size="14" lengthAdjust="spacing" textLength="143.3975" x="13" y="112.8857">email : varchar(255)</text><text fill="#000000" font-family="sans-serif" font-size="14" lengthAdjust="spacing" textLength="176.6748" x="13" y="129.1826">created_at : timestamptz</text><text fill="#000000" font-family="sans-serif" font-size="14" lengthAdjust="spacing" textLength="181.2549" x="13" y="145.4795">updated_at : timestamptz</text></g><!--class product_categories--><g id="elem_product_categories"><rect codeLine="11" fill="#F1F1F1" height="80.5938" id="product_categories" rx="2.5" ry="2.5" style="stroke:#181818;stroke-width:0.5;" width="194.6289" x="471.31" y="39.59"/><ellipse cx="498.9509" cy="55.59" fill="#ADD1B2" rx="11" ry="11" style="stroke:#181818;stroke-width:1.0;"/><path d="M503.0602,61.59 L495.3415,61.59 L495.3415,49.1994 L503.0602,49.1994 L503.0602,51.3556 L497.7946,51.3556 L497.7946,54.0275 L502.5602,54.0275 L502.5602,56.1838 L497.7946,56.1838 L497.7946,59.4338 L503.0602,59.4338 L503.0602,61.59 Z " fill="#000000"/><text fill="#000000" font-family="sans-serif" font-size="14" lengthAdjust="spacing" textLength="134.5381" x="515.76" y="60.4367">product_categories</text><line style="stroke:#181818;stroke-width:0.5;" x1="472.31" x2="664.9389" y1="71.59" y2="71.59"/><ellipse cx="482.31" cy="85.2384" fill="#000000" rx="3" ry="3" style="stroke:#000000;stroke-width:1.0;"/><text fill="#000000" font-family="sans-serif" font-size="14" lengthAdjust="spacing" textLength="56.916" x="491.31" y="88.5851">id : uuid</text><line style="stroke:#181818;stroke-width:1.0;" x1="472.31" x2="664.9389" y1="95.8869" y2="95.8869"/><text fill="#000000" font-family="sans-serif" font-size="14" lengthAdjust="spacing" textLength="182.6289" x="477.31" y="112.882">description : varchar(255)</text></g><!--class products--><g id="elem_products"><rect codeLine="17" fill="#F1F1F1" height="162.0781" id="products" rx="2.5" ry="2.5" style="stroke:#181818;stroke-width:0.5;" width="207.2549" x="465" y="229.78"/><ellipse cx="533.6533" cy="245.78" fill="#ADD1B2" rx="11" ry="11" style="stroke:#181818;stroke-width:1.0;"/><path d="M537.7627,251.78 L530.0439,251.78 L530.0439,239.3894 L537.7627,239.3894 L537.7627,241.5456 L532.4971,241.5456 L532.4971,244.2175 L537.2627,244.2175 L537.2627,246.3738 L532.4971,246.3738 L532.4971,249.6238 L537.7627,249.6238 L537.7627,251.78 Z " fill="#000000"/><text fill="#000000" font-family="sans-serif" font-size="14" lengthAdjust="spacing" textLength="61.4482" x="554.1533" y="250.6267">products</text><line style="stroke:#181818;stroke-width:0.5;" x1="466" x2="671.2549" y1="261.78" y2="261.78"/><ellipse cx="476" cy="275.4284" fill="#000000" rx="3" ry="3" style="stroke:#000000;stroke-width:1.0;"/><text fill="#000000" font-family="sans-serif" font-size="14" lengthAdjust="spacing" textLength="56.916" x="485" y="278.7751">id : uuid</text><text fill="#000000" font-family="sans-serif" font-size="14" lengthAdjust="spacing" textLength="125.7881" x="485" y="295.072">id_category : uuid</text><text fill="#000000" font-family="sans-serif" font-size="14" lengthAdjust="spacing" textLength="120.5586" x="485" y="311.3689">ingredients : text</text><text fill="#000000" font-family="sans-serif" font-size="14" lengthAdjust="spacing" textLength="176.6748" x="485" y="327.6657">created_at : timestamptz</text><text fill="#000000" font-family="sans-serif" font-size="14" lengthAdjust="spacing" textLength="181.2549" x="485" y="343.9626">updated_at : timestamptz</text><line style="stroke:#181818;stroke-width:0.5;" x1="466" x2="671.2549" y1="351.2644" y2="351.2644"/><text fill="#000000" font-family="sans-serif" font-size="14" lengthAdjust="spacing" textLength="182.6289" x="471" y="368.2595">description : varchar(255)</text><text fill="#000000" font-family="sans-serif" font-size="14" lengthAdjust="spacing" textLength="150.1992" x="471" y="384.5564">price : decimal(10, 2)</text></g><!--class order_status--><g id="elem_order_status"><rect codeLine="27" fill="#F1F1F1" height="80.5938" id="order_status" rx="2.5" ry="2.5" style="stroke:#181818;stroke-width:0.5;" width="194.6289" x="235.31" y="39.59"/><ellipse cx="284.5766" cy="55.59" fill="#ADD1B2" rx="11" ry="11" style="stroke:#181818;stroke-width:1.0;"/><path d="M288.686,61.59 L280.9672,61.59 L280.9672,49.1994 L288.686,49.1994 L288.686,51.3556 L283.4204,51.3556 L283.4204,54.0275 L288.186,54.0275 L288.186,56.1838 L283.4204,56.1838 L283.4204,59.4338 L288.686,59.4338 L288.686,61.59 Z " fill="#000000"/><text fill="#000000" font-family="sans-serif" font-size="14" lengthAdjust="spacing" textLength="87.5957" x="305.0766" y="60.4367">order_status</text><line style="stroke:#181818;stroke-width:0.5;" x1="236.31" x2="428.9389" y1="71.59" y2="71.59"/><ellipse cx="246.31" cy="85.2384" fill="#000000" rx="3" ry="3" style="stroke:#000000;stroke-width:1.0;"/><text fill="#000000" font-family="sans-serif" font-size="14" lengthAdjust="spacing" textLength="138.8994" x="255.31" y="88.5851">status : varchar(20)</text><line style="stroke:#181818;stroke-width:1.0;" x1="236.31" x2="428.9389" y1="95.8869" y2="95.8869"/><text fill="#000000" font-family="sans-serif" font-size="14" lengthAdjust="spacing" textLength="182.6289" x="241.31" y="112.882">description : varchar(255)</text></g><!--class orders--><g id="elem_orders"><rect codeLine="33" fill="#F1F1F1" height="162.0781" id="orders" rx="2.5" ry="2.5" style="stroke:#181818;stroke-width:0.5;" width="207.2549" x="223" y="229.78"/><ellipse cx="299.9419" cy="245.78" fill="#ADD1B2" rx="11" ry="11" style="stroke:#181818;stroke-width:1.0;"/><path d="M304.0513,251.78 L296.3325,251.78 L296.3325,239.3894 L304.0513,239.3894 L304.0513,241.5456 L298.7856,241.5456 L298.7856,244.2175 L303.5513,244.2175 L303.5513,246.3738 L298.7856,246.3738 L298.7856,249.6238 L304.0513,249.6238 L304.0513,251.78 Z " fill="#000000"/><text fill="#000000" font-family="sans-serif" font-size="14" lengthAdjust="spacing" textLength="44.8711" x="320.4419" y="250.6267">orders</text><line style="stroke:#181818;stroke-width:0.5;" x1="224" x2="429.2549" y1="261.78" y2="261.78"/><ellipse cx="234" cy="275.4284" fill="#000000" rx="3" ry="3" style="stroke:#000000;stroke-width:1.0;"/><text fill="#000000" font-family="sans-serif" font-size="14" lengthAdjust="spacing" textLength="56.916" x="243" y="278.7751">id : uuid</text><text fill="#000000" font-family="sans-serif" font-size="14" lengthAdjust="spacing" textLength="129.8418" x="243" y="295.072">id_customer : uuid</text><text fill="#000000" font-family="sans-serif" font-size="14" lengthAdjust="spacing" textLength="181.0771" x="243" y="311.3689">notification_attempts : int</text><text fill="#000000" font-family="sans-serif" font-size="14" lengthAdjust="spacing" textLength="176.1758" x="243" y="327.6657">notified_at : timestamptz</text><text fill="#000000" font-family="sans-serif" font-size="14" lengthAdjust="spacing" textLength="176.6748" x="243" y="343.9626">created_at : timestamptz</text><text fill="#000000" font-family="sans-serif" font-size="14" lengthAdjust="spacing" textLength="181.2549" x="243" y="360.2595">updated_at : timestamptz</text><line style="stroke:#181818;stroke-width:0.5;" x1="224" x2="429.2549" y1="367.5613" y2="367.5613"/><text fill="#000000" font-family="sans-serif" font-size="14" lengthAdjust="spacing" textLength="138.8994" x="229" y="384.5564">status : varchar(20)</text></g><!--class order_products--><g id="elem_order_products"><rect codeLine="43" fill="#F1F1F1" height="80.5938" id="order_products" rx="2.5" ry="2.5" style="stroke:#181818;stroke-width:0.5;" width="138.0254" x="377.61" y="468.86"/><ellipse cx="392.61" cy="484.86" fill="#ADD1B2" rx="11" ry="11" style="stroke:#181818;stroke-width:1.0;"/><path d="M396.7194,490.86 L389.0006,490.86 L389.0006,478.4694 L396.7194,478.4694 L396.7194,480.6256 L391.4538,480.6256 L391.4538,483.2975 L396.2194,483.2975 L396.2194,485.4538 L391.4538,485.4538 L391.4538,488.7038 L396.7194,488.7038 L396.7194,490.86 Z " fill="#000000"/><text fill="#000000" font-family="sans-serif" font-size="14" lengthAdjust="spacing" textLength="106.0254" x="406.61" y="489.7067">order_products</text><line style="stroke:#181818;stroke-width:0.5;" x1="378.61" x2="514.6354" y1="500.86" y2="500.86"/><text fill="#000000" font-family="sans-serif" font-size="14" lengthAdjust="spacing" textLength="101.4932" x="383.61" y="517.8551">id_order : uuid</text><text fill="#000000" font-family="sans-serif" font-size="14" lengthAdjust="spacing" textLength="118.0703" x="383.61" y="534.152">id_product : uuid</text><line style="stroke:#181818;stroke-width:0.5;" x1="378.61" x2="514.6354" y1="541.4538" y2="541.4538"/></g><!--class users--><g id="elem_users"><rect codeLine="48" fill="#F1F1F1" height="96.8906" id="users" rx="2.5" ry="2.5" style="stroke:#181818;stroke-width:0.5;" width="187.0273" x="701.11" y="31.44"/><ellipse cx="771.4586" cy="47.44" fill="#ADD1B2" rx="11" ry="11" style="stroke:#181818;stroke-width:1.0;"/><path d="M775.568,53.44 L767.8493,53.44 L767.8493,41.0494 L775.568,41.0494 L775.568,43.2056 L770.3024,43.2056 L770.3024,45.8775 L775.068,45.8775 L775.068,48.0338 L770.3024,48.0338 L770.3024,51.2838 L775.568,51.2838 L775.568,53.44 Z " fill="#000000"/><text fill="#000000" font-family="sans-serif" font-size="14" lengthAdjust="spacing" textLength="37.8301" x="791.9586" y="52.2867">users</text><line style="stroke:#181818;stroke-width:0.5;" x1="702.11" x2="887.1373" y1="63.44" y2="63.44"/><ellipse cx="712.11" cy="77.0884" fill="#000000" rx="3" ry="3" style="stroke:#000000;stroke-width:1.0;"/><text fill="#000000" font-family="sans-serif" font-size="14" lengthAdjust="spacing" textLength="56.916" x="721.11" y="80.4351">id : uuid</text><line style="stroke:#181818;stroke-width:1.0;" x1="702.11" x2="887.1373" y1="87.7369" y2="87.7369"/><text fill="#000000" font-family="sans-serif" font-size="14" lengthAdjust="spacing" textLength="175.0273" x="707.11" y="104.732">username : varchar(255)</text><text fill="#000000" font-family="sans-serif" font-size="14" lengthAdjust="spacing" textLength="108.2061" x="707.11" y="121.0289">password : text</text></g><!--link customers to orders--><g id="link_customers_orders"><path codeLine="56" d="M179.4631,158.7397 C203.0831,182.9797 211.4292,191.5571 235.6392,216.4071 " fill="none" id="customers-orders" style="stroke:#181818;stroke-width:1.0;"/><line style="stroke:#181818;stroke-width:1.0;" x1="173.8067" x2="179.5364" y1="158.6664" y2="153.0833"/><line style="stroke:#181818;stroke-width:1.0;" x1="175.9004" x2="181.63" y1="160.815" y2="155.2319"/><line style="stroke:#181818;stroke-width:1.0;" x1="179.4631" x2="173.88" y1="158.7397" y2="153.01"/><line style="stroke:#181818;stroke-width:1.0;" x1="242.6174" x2="252.4976" y1="223.5698" y2="225.1131"/><line style="stroke:#181818;stroke-width:1.0;" x1="242.6174" x2="243.9024" y1="223.5698" y2="233.4869"/><line style="stroke:#181818;stroke-width:1.0;" x1="242.6174" x2="248.2" y1="223.5698" y2="229.3"/><ellipse cx="238.4305" cy="219.2722" fill="none" rx="4" ry="4" style="stroke:#181818;stroke-width:1.0;"/><text fill="#000000" font-family="sans-serif" font-size="13" lengthAdjust="spacing" textLength="79.5806" x="215.63" y="195.8469">id_customer</text></g><!--link orders to order_products--><g id="link_orders_order_products"><path codeLine="57" d="M379.952,399.066 C396.002,425.326 399.5736,431.1611 412.9636,453.0711 " fill="none" id="orders-order_products" style="stroke:#181818;stroke-width:1.0;"/><line style="stroke:#181818;stroke-width:1.0;" x1="374.453" x2="381.279" y1="397.739" y2="393.567"/><line style="stroke:#181818;stroke-width:1.0;" x1="376.0175" x2="382.8435" y1="400.2988" y2="396.1267"/><line style="stroke:#181818;stroke-width:1.0;" x1="379.952" x2="375.78" y1="399.066" y2="392.24"/><line style="stroke:#181818;stroke-width:1.0;" x1="418.1783" x2="427.4696" y1="461.6038" y2="465.3012"/><line style="stroke:#181818;stroke-width:1.0;" x1="418.1783" x2="417.2304" y1="461.6038" y2="471.5588"/><line style="stroke:#181818;stroke-width:1.0;" x1="418.1783" x2="422.35" y1="461.6038" y2="468.43"/><ellipse cx="415.0495" cy="456.4842" fill="none" rx="4" ry="4" style="stroke:#181818;stroke-width:1.0;"/><text fill="#000000" font-family="sans-serif" font-size="13" lengthAdjust="spacing" textLength="53.2568" x="401.63" y="434.9269">id_order</text></g><!--link products to order_products--><g id="link_products_order_products"><path codeLine="58" d="M514.4272,399.0347 C498.1072,425.2947 494.433,431.2329 480.813,453.1429 " fill="none" id="products-order_products" style="stroke:#181818;stroke-width:1.0;"/><line style="stroke:#181818;stroke-width:1.0;" x1="513.1413" x2="519.936" y1="393.526" y2="397.7487"/><line style="stroke:#181818;stroke-width:1.0;" x1="511.5577" x2="518.3524" y1="396.074" y2="400.2968"/><line style="stroke:#181818;stroke-width:1.0;" x1="514.4272" x2="518.65" y1="399.0347" y2="392.24"/><line style="stroke:#181818;stroke-width:1.0;" x1="475.5335" x2="476.4057" y1="461.6358" y2="471.5977"/><line style="stroke:#181818;stroke-width:1.0;" x1="475.5335" x2="466.2143" y1="461.6358" y2="465.2623"/><line style="stroke:#181818;stroke-width:1.0;" x1="475.5335" x2="471.31" y1="461.6358" y2="468.43"/><ellipse cx="478.7012" cy="456.5401" fill="none" rx="4" ry="4" style="stroke:#181818;stroke-width:1.0;"/><text fill="#000000" font-family="sans-serif" font-size="13" lengthAdjust="spacing" textLength="68.6499" x="497.63" y="434.9269">id_product</text></g><!--link product_categories to products--><g id="link_product_categories_products"><path codeLine="59" d="M568.63,128.5 C568.63,158.45 568.63,174.57 568.63,211.47 " fill="none" id="product_categories-products" style="stroke:#181818;stroke-width:1.0;"/><line style="stroke:#181818;stroke-width:1.0;" x1="564.63" x2="572.63" y1="124.5" y2="124.5"/><line style="stroke:#181818;stroke-width:1.0;" x1="564.63" x2="572.63" y1="127.5" y2="127.5"/><line style="stroke:#181818;stroke-width:1.0;" x1="568.63" x2="568.63" y1="128.5" y2="120.5"/><line style="stroke:#181818;stroke-width:1.0;" x1="568.63" x2="574.63" y1="221.47" y2="229.47"/><line style="stroke:#181818;stroke-width:1.0;" x1="568.63" x2="562.63" y1="221.47" y2="229.47"/><line style="stroke:#181818;stroke-width:1.0;" x1="568.63" x2="568.63" y1="221.47" y2="229.47"/><ellipse cx="568.63" cy="215.47" fill="none" rx="4" ry="4" style="stroke:#181818;stroke-width:1.0;"/><text fill="#000000" font-family="sans-serif" font-size="13" lengthAdjust="spacing" textLength="75.8164" x="569.63" y="195.8469">id_category</text></g><!--reverse link order_status to orders--><g id="link_order_status_orders"><path codeLine="60" d="M331.3791,128.4972 C330.5891,158.4472 329.7,192.57 328.73,229.47 " fill="none" id="order_status-backto-orders" style="stroke:#181818;stroke-width:1.0;"/><line style="stroke:#181818;stroke-width:1.0;" x1="327.4859" x2="335.4831" y1="124.3931" y2="124.6041"/><line style="stroke:#181818;stroke-width:1.0;" x1="327.4068" x2="335.404" y1="127.3921" y2="127.603"/><line style="stroke:#181818;stroke-width:1.0;" x1="331.3791" x2="331.59" y1="128.4972" y2="120.5"/><text fill="#000000" font-family="sans-serif" font-size="13" lengthAdjust="spacing" textLength="39.9458" x="330.63" y="195.8469">status</text></g><!--SRC=[hLDBRi8m4Dtd55OsXQgH08bDZz4B8DSUw4Z4jknnMmgzUoV6IQsKW2gHXIE_UVDxdW53I0THgnZ8jk13BOwLuEyHjNWMCQ9ErwP9FoDROFXTUlKc_MorNiyJhjosW9VBCmgjnFr5kWT9e3UIs4hOGY3PElfAnkZqPUDtLK4krtchewADOkREUeGRTMi8ogCZj6PSpz-eKx5Gz_aE9NmbTl8oEmyQEKVe-e5FIh3pg3efDIXivNwsN3o9rPtKiLw3tx21ucylvsjPuMB-VubIw6i2vJaguSdCnX9kaJNbdDmG0JVIyT1GOPzIuauoZH-TcqY6KMEPrgD5c1Xkhar7cLeT9qFuu8pzS73a1_42UwbO5VOnP8FWquEGGP1yPLEeXdqLfrFJsACuFmm7gOjNgAiCbwIXuqnEO5qDw3LklWxiOW5xlv57lp6vb3oLYLpKd6Vr1m00]--></g></svg>